<?xml version="1.0" standalone="no"?>
<!DOCTYPE svg PUBLIC "-//W3C//DTD SVG 20010904//EN"
 "http://www.w3.org/TR/2001/REC-SVG-20010904/DTD/svg10.dtd">
<svg version="1.0" xmlns="http://www.w3.org/2000/svg"
 width="512.000000pt" height="512.000000pt" viewBox="0 0 512.000000 512.000000"
 preserveAspectRatio="xMidYMid meet">

<g transform="translate(0.000000,512.000000) scale(0.100000,-0.100000)"
fill="#000000" stroke="none">
<path d="M3707 4740 c-402 -102 -675 -466 -654 -874 3 -61 9 -120 12 -131 5
-18 -58 -50 -620 -314 l-626 -294 -52 50 c-278 269 -738 300 -1076 71 -75 -51
-192 -178 -242 -264 -86 -146 -120 -273 -120 -448 -1 -473 385 -856 861 -856
222 0 434 86 595 241 l62 59 614 -290 c338 -159 613 -293 612 -299 -28 -120
-27 -317 3 -426 71 -266 277 -496 525 -589 277 -104 585 -63 818 109 155 114
253 252 317 445 26 79 28 97 28 245 1 189 -10 239 -84 390 -89 179 -207 298
-385 386 -134 65 -195 81 -352 86 -148 6 -234 -8 -355 -57 -114 -47 -178 -90
-281 -192 l-97 -96 -318 150 c-174 82 -443 208 -597 281 -154 72 -282 132
-283 133 -2 1 6 46 18 99 29 125 25 310 -11 423 -12 40 -20 75 -17 78 8 7
1166 553 1182 556 7 2 36 -25 65 -60 109 -131 255 -226 426 -278 79 -24 107
-27 230 -28 162 0 232 14 363 75 213 99 373 271 451 485 43 118 55 203 48 340
-7 138 -23 206 -78 324 -82 176 -218 314 -394 401 -140 68 -193 81 -365 85
-119 3 -159 0 -223 -16z"/>
</g>
</svg>
